<?xml version="1.0" encoding="UTF-8" standalone="no"?>
<svg
   xmlns:dc="http://purl.org/dc/elements/1.1/"
   xmlns:cc="http://creativecommons.org/ns#"
   xmlns:rdf="http://www.w3.org/1999/02/22-rdf-syntax-ns#"
   xmlns:svg="http://www.w3.org/2000/svg"
   xmlns="http://www.w3.org/2000/svg"
   xmlns:sodipodi="http://sodipodi.sourceforge.net/DTD/sodipodi-0.dtd"
   xmlns:inkscape="http://www.inkscape.org/namespaces/inkscape"
   version="1.1"
   id="svg10"
   width="249.86133"
   height="287.20575"
   viewBox="0 0 249.86133 287.20575"
   sodipodi:docname="podcastream-white.svg"
   inkscape:version="1.0.1 (c497b03c, 2020-09-10)">
  <metadata
     id="metadata16">
    <rdf:RDF>
      <cc:Work
         rdf:about="">
        <dc:format>image/svg+xml</dc:format>
        <dc:type
           rdf:resource="http://purl.org/dc/dcmitype/StillImage" />
        <dc:title></dc:title>
      </cc:Work>
    </rdf:RDF>
  </metadata>
  <defs
     id="defs14" />
  <sodipodi:namedview
     pagecolor="#ffffff"
     bordercolor="#666666"
     borderopacity="1"
     objecttolerance="10"
     gridtolerance="10"
     guidetolerance="10"
     inkscape:pageopacity="0"
     inkscape:pageshadow="2"
     inkscape:window-width="1549"
     inkscape:window-height="813"
     id="namedview12"
     showgrid="false"
     inkscape:zoom="0.85764319"
     inkscape:cx="-161.23549"
     inkscape:cy="170.68827"
     inkscape:window-x="0"
     inkscape:window-y="23"
     inkscape:window-maximized="0"
     inkscape:current-layer="g18" />
  <g
     inkscape:groupmode="layer"
     inkscape:label="Image"
     id="g18"
     transform="translate(-1116.7781,-223.39701)">
    <g
       id="g898"
       style="fill:#ffffff;fill-opacity:1">
      <g
         id="g884"
         transform="translate(0,8.0592595)"
         style="fill:#ffffff;fill-opacity:1">
        <path
           style="fill:#ffffff;fill-opacity:1"
           d="m 1128.9123,434.63823 c -5.0225,-1.13463 -9.0649,-4.65576 -10.9192,-9.51123 -2.335,-6.11414 -1.482,-10.06151 4.1143,-19.04046 10.1326,-16.25714 13.8639,-29.41847 13.8792,-48.95612 0.016,-19.85076 -3.567,-32.40162 -14.0531,-49.23228 -5.4405,-8.73241 -6.2622,-12.68471 -3.9148,-18.83119 3.4192,-8.95328 14.607,-12.64156 22.8648,-7.53793 6.8037,4.20494 18.6881,26.41556 23.0935,43.15917 9.1902,34.92943 3.8918,68.73183 -15.6149,99.61854 -5.5125,8.72833 -11.7888,12.06222 -19.4498,10.3315 z"
           id="path34" />
        <path
           style="fill:#ffffff;fill-opacity:1"
           d="m 1167.7658,500.96691 c -4.7816,-2.35674 -7.506,-6.76248 -8.0209,-12.97065 -0.4184,-5.04596 -0.1314,-5.84078 5.6311,-15.59164 15.8738,-26.86057 25.0377,-52.51365 29.7479,-83.27463 2.3074,-15.06891 2.3193,-44.06008 0.025,-59.95001 -4.2985,-29.76663 -14.7766,-59.28643 -29.6564,-83.55 -5.6847,-9.26963 -6.9498,-14.42412 -4.9946,-20.34869 3.3296,-10.08857 17.3932,-13.33002 25.3334,-5.83898 5.5494,5.23546 17.7957,27.72821 25.4094,46.66937 12.1029,30.10971 17.5374,59.37438 17.4593,94.01831 -0.096,42.76453 -10.3545,82.69874 -30.7125,119.56255 -8.3248,15.07422 -11.8174,19.77949 -15.9695,21.51438 -4.4672,1.86653 -10.173,1.77044 -14.2519,-0.24001 z"
           id="path28" />
      </g>
      <g
         id="g880"
         transform="matrix(-1,0,0,1,2246.0414,8.1619024)"
         style="fill:#ffffff;fill-opacity:1">
        <path
           style="fill:#ffffff;fill-opacity:1"
           d="m 976.10152,434.63423 c -6.54186,-1.50393 -10.6059,-5.75099 -17.7816,-18.58234 -17.18212,-30.72447 -19.62787,-70.2004 -6.43961,-103.93889 4.28794,-10.9695 12.07942,-24.37496 16.74667,-28.81315 3.68776,-3.50676 9.40398,-4.93725 14.40402,-3.60462 11.50842,3.06728 15.23543,15.62115 7.83215,26.38144 -17.54897,25.50656 -20.3742,60.83287 -7.12608,89.10362 2.13828,4.56297 5.39565,10.46832 7.23859,13.123 2.91846,4.20391 3.35081,5.62367 3.35081,11.00337 0,4.7179 -0.49704,6.84347 -2.10453,9 -3.83463,5.14435 -10.27353,7.67174 -16.12042,6.32757 z"
           id="path32" />
        <path
           style="fill:#ffffff;fill-opacity:1"
           d="m 926.13576,501.21947 c -3.82342,-1.72923 -7.57003,-6.71703 -15.09028,-20.08948 -40.07984,-71.26958 -42.23013,-160.5639 -5.62672,-233.65857 6.44534,-12.87094 13.83622,-24.97346 17.20407,-28.17157 7.79009,-7.39747 21.94457,-4.0449 25.25357,5.98144 1.9862,6.01826 0.66424,11.04518 -5.6142,21.34869 -14.4826,23.76729 -24.53534,52.00518 -29.01415,81.50001 -2.06272,13.58387 -2.35791,44.12453 -0.55576,57.5 1.79805,13.345 5.6462,30.22487 9.75453,42.78805 3.96202,12.1158 14.22777,34.0607 21.10027,45.10564 7.17427,11.52995 6.82358,20.73436 -1.00228,26.30686 -3.8018,2.70712 -11.96643,3.39821 -16.40905,1.38893 z"
           id="path26" />
      </g>
    </g>
  </g>
</svg>
